<?xml version="1.0" encoding="utf-8"?>
<svg version="1.1" id="Слой_1" xmlns="http://www.w3.org/2000/svg" xmlns:xlink="http://www.w3.org/1999/xlink" x="0px" y="0px"
	 viewBox="0 0 1440 1440" style="enable-background:new 0 0 1440 1440;" xml:space="preserve">
<style type="text/css">
	.st0{fill:#22B573;}
</style>
<g>
	<g>
		<path class="st0" d="M302.15,1133.68H555.8v-15.6c0,0-70.14-2.67-87.32-21.66c-14.94-16.52-8.96-58.35-8.96-58.35
			s227.09,8.3,431.61-86.32c108.23,184.26-39.84,168.66-39.84,168.66v18.59h315.4v-19.26c0,0-89.64,47.14-177.18-220.46
			c0,0,333.38-203.66,201.08-349.92c-59.76-66.07-235.15-59.79-322.71-48.47c-10.8,1.4-0.37,13.74-0.37,13.74
			s334.66-32.22,332.38,105.78c-2.66,160.36-357.07,297.6-537.18,342.63c-37.18,9.3-391.31,74.94-412.35-67.06
			C234.42,788.39,473.46,640.32,568.42,596.9c4.77-2.18-6.71-20.23-11.29-17.67c-164.01,91.63-379.81,191.31-332,357.9
			c21.91,76.36,183.16,89.04,182.6,98.27c-3.98,66.4-105.51,85.51-105.51,85.51L302.15,1133.68z"/>
		<path class="st0" d="M700.3,493.72c6.22,0,152.72,363.06,155,368.92c3.07,7.89,98.43-39.39,97.99-44.7
			c-0.59-7.2-214.75-517.06-221.78-516.93C719.02,301.23,449,944.43,449.28,948.05c0.39,5.01,47.84,5.15,50.83-0.3
			C503.61,941.37,691.21,493.72,700.3,493.72z"/>
	</g>
	<g>
		<path class="st0" d="M720,1400.5c-375.23,0-680.5-305.27-680.5-680.49C39.5,344.77,344.77,39.5,720,39.5
			s680.5,305.27,680.5,680.51C1400.5,1095.23,1095.23,1400.5,720,1400.5z M720,74.58c-355.89,0-645.42,289.54-645.42,645.42
			S364.11,1365.42,720,1365.42s645.42-289.53,645.42-645.41S1075.89,74.58,720,74.58z"/>
	</g>
</g>
</svg>
